<?xml version="1.0" encoding="UTF-8" standalone="no"?><!-- Generator: Gravit.io --><svg xmlns="http://www.w3.org/2000/svg" xmlns:xlink="http://www.w3.org/1999/xlink" style="isolation:isolate" viewBox="121 0 290 216" width="290pt" height="216pt"><defs><clipPath id="_clipPath_k62Yv0gLoOwyzyE4bcsi5pyiAY8XQgty"><rect width="510.344" height="751.219"/></clipPath></defs><g clip-path="url(#_clipPath_k62Yv0gLoOwyzyE4bcsi5pyiAY8XQgty)"><clipPath id="_clipPath_DbNkcItikQLaSTjDA6UHSzKNQxHmGVx9"><path d=" M 0 0 L 0 751.219 L 510.344 751.219 L 510.344 0 L 0 0 Z " fill="rgb(255,255,255)"/></clipPath><g clip-path="url(#_clipPath_DbNkcItikQLaSTjDA6UHSzKNQxHmGVx9)"><path d=" M 123.422 175.892 L 134.469 175.892 L 134.469 215.188 L 123.422 215.188 L 123.422 175.892 Z  M 121.905 162.233 C 121.905 158.522 125.11 155.655 128.903 155.655 C 132.783 155.655 135.903 158.522 135.903 162.233 C 135.903 165.942 132.783 168.894 128.903 168.894 C 125.11 168.894 121.905 165.942 121.905 162.233 Z " fill="rgb(133,173,77)"/><path d=" M 184.046 193.601 L 184.046 215.188 L 173 215.188 L 173 194.781 C 173 188.541 169.29 185.758 165.496 185.758 C 161.531 185.758 156.641 187.867 156.641 195.035 L 156.641 215.188 L 145.595 215.188 L 145.595 175.892 L 156.641 175.892 L 156.641 182.471 C 158.329 177.157 164.569 174.88 168.446 174.88 C 178.734 174.88 184.131 181.795 184.046 193.601 Z " fill="rgb(133,173,77)"/><path d=" M 223.333 195.456 C 223.333 189.299 218.864 185.169 213.382 185.169 C 207.901 185.169 203.432 189.299 203.432 195.456 C 203.432 201.527 207.901 205.659 213.382 205.659 C 218.864 205.659 223.333 201.527 223.333 195.456 Z  M 192.217 195.456 C 192.217 182.975 202.168 174.88 213.382 174.88 C 224.597 174.88 234.548 182.975 234.548 195.456 C 234.548 207.851 224.597 215.946 213.382 215.946 C 202.168 215.946 192.217 207.851 192.217 195.456 Z " fill="rgb(45,87,136)"/><path d=" M 274.93 195.456 C 274.93 189.638 270.377 185.337 264.81 185.337 C 259.668 185.337 254.608 189.384 254.608 195.456 C 254.608 201.442 259.414 205.659 264.81 205.659 C 270.377 205.659 274.93 201.19 274.93 195.456 Z  M 286.23 195.456 C 286.23 208.105 277.038 215.946 266.92 215.946 C 262.451 215.946 257.054 214.26 254.271 210.297 L 254.271 215.188 L 243.224 215.188 L 243.224 154.896 L 254.271 154.896 L 254.271 180.616 C 257.054 176.651 262.451 174.965 266.92 174.965 C 277.038 174.965 286.23 182.807 286.23 195.456 Z " fill="rgb(45,87,136)"/><path d=" M 323.66 176.146 L 321.131 186.686 C 318.769 185.421 316.829 185.252 315.48 185.252 C 309.831 185.252 305.951 190.481 305.951 201.696 L 305.951 215.188 L 294.906 215.188 L 294.906 175.892 L 305.866 175.892 L 305.866 184.242 C 308.06 177.663 312.53 174.88 317.42 174.88 C 319.527 174.88 321.889 175.219 323.66 176.146 Z " fill="rgb(45,87,136)"/><path d=" M 357.889 195.456 C 357.889 189.384 352.832 185.337 347.686 185.337 C 342.121 185.337 337.484 189.638 337.484 195.456 C 337.484 201.19 342.121 205.659 347.686 205.659 C 353.084 205.659 357.889 201.442 357.889 195.456 Z  M 369.273 175.892 L 369.273 215.188 L 358.228 215.188 L 358.228 210.297 C 355.445 214.175 349.964 215.946 345.579 215.946 C 335.46 215.946 326.269 208.105 326.269 195.456 C 326.269 182.807 335.46 174.965 345.579 174.965 C 350.132 174.965 355.445 176.651 358.228 180.616 L 358.228 175.892 L 369.273 175.892 Z " fill="rgb(45,87,136)"/><path d=" M 377.951 202.539 L 388.323 202.539 C 388.323 204.816 390.261 207.26 394.141 207.26 C 397.345 207.26 399.79 205.911 399.79 203.634 C 399.79 201.948 398.441 201.105 395.491 200.347 L 390.261 199.082 C 380.143 196.384 378.795 190.733 378.795 186.601 C 378.795 180.531 385.119 174.88 394.226 174.88 C 401.393 174.88 409.825 178.423 409.741 187.698 L 399.201 187.698 C 399.201 185.084 397.007 183.651 394.393 183.651 C 391.865 183.651 389.84 184.915 389.84 186.94 C 389.84 188.793 391.528 189.721 393.719 190.312 L 400.212 191.998 C 409.656 194.529 410.838 200.431 410.838 203.634 C 410.838 211.898 402.404 215.946 394.308 215.946 C 386.047 215.946 378.036 211.225 377.951 202.539 Z " fill="rgb(45,87,136)"/><path d=" M 392.618 136.776 C 388.303 141.09 381.362 141.09 377.048 136.776 L 362.936 122.665 L 340.943 100.672 L 268.638 28.367 C 267.147 26.908 264.746 26.908 263.254 28.367 L 154.813 136.776 C 150.531 141.09 143.557 141.09 139.275 136.776 C 134.993 132.494 134.993 125.552 139.275 121.238 L 250.408 10.137 L 256.701 3.844 C 261.795 -1.281 270.066 -1.281 275.191 3.844 L 281.484 10.137 L 340.943 69.564 L 340.943 44.035 C 340.943 37.936 345.874 33.038 351.94 33.038 C 358.006 33.038 362.936 37.936 362.936 44.035 L 362.936 91.557 L 392.618 121.238 C 396.899 125.552 396.899 132.494 392.618 136.776 Z " fill="rgb(133,173,77)"/><path d=" M 83.03 390.194 L 89.038 390.194 L 89.038 411.566 L 83.03 411.566 L 83.03 390.194 Z  M 82.205 382.765 C 82.205 380.747 83.948 379.187 86.011 379.187 C 88.121 379.187 89.818 380.747 89.818 382.765 C 89.818 384.782 88.121 386.388 86.011 386.388 C 83.948 386.388 82.205 384.782 82.205 382.765 Z " fill="rgb(133,173,77)"/><path d=" M 116.002 399.825 L 116.002 411.566 L 109.994 411.566 L 109.994 400.467 C 109.994 397.073 107.976 395.559 105.913 395.559 C 103.757 395.559 101.097 396.707 101.097 400.605 L 101.097 411.566 L 95.09 411.566 L 95.09 390.194 L 101.097 390.194 L 101.097 393.772 C 102.015 390.882 105.408 389.643 107.518 389.643 C 113.113 389.643 116.048 393.404 116.002 399.825 Z " fill="rgb(133,173,77)"/><path d=" M 137.369 400.835 C 137.369 397.486 134.939 395.239 131.958 395.239 C 128.976 395.239 126.546 397.486 126.546 400.835 C 126.546 404.136 128.976 406.384 131.958 406.384 C 134.939 406.384 137.369 404.136 137.369 400.835 Z  M 120.446 400.835 C 120.446 394.046 125.858 389.643 131.958 389.643 C 138.057 389.643 143.469 394.046 143.469 400.835 C 143.469 407.576 138.057 411.978 131.958 411.978 C 125.858 411.978 120.446 407.576 120.446 400.835 Z " fill="rgb(133,173,77)"/><path d=" M 165.432 400.835 C 165.432 397.67 162.955 395.331 159.928 395.331 C 157.131 395.331 154.379 397.532 154.379 400.835 C 154.379 404.09 156.993 406.384 159.928 406.384 C 162.955 406.384 165.432 403.953 165.432 400.835 Z  M 171.577 400.835 C 171.577 407.714 166.578 411.978 161.075 411.978 C 158.645 411.978 155.71 411.061 154.196 408.906 L 154.196 411.566 L 148.187 411.566 L 148.187 378.775 L 154.196 378.775 L 154.196 392.763 C 155.71 390.606 158.645 389.689 161.075 389.689 C 166.578 389.689 171.577 393.955 171.577 400.835 Z " fill="rgb(133,173,77)"/><path d=" M 191.935 390.332 L 190.559 396.064 C 189.275 395.377 188.22 395.285 187.486 395.285 C 184.414 395.285 182.303 398.129 182.303 404.228 L 182.303 411.566 L 176.296 411.566 L 176.296 390.194 L 182.257 390.194 L 182.257 394.735 C 183.451 391.157 185.881 389.643 188.541 389.643 C 189.687 389.643 190.972 389.828 191.935 390.332 Z " fill="rgb(133,173,77)"/><path d=" M 210.551 400.835 C 210.551 397.532 207.8 395.331 205.003 395.331 C 201.975 395.331 199.453 397.67 199.453 400.835 C 199.453 403.953 201.975 406.384 205.003 406.384 C 207.938 406.384 210.551 404.09 210.551 400.835 Z  M 216.743 390.194 L 216.743 411.566 L 210.736 411.566 L 210.736 408.906 C 209.222 411.015 206.241 411.978 203.856 411.978 C 198.352 411.978 193.354 407.714 193.354 400.835 C 193.354 393.955 198.352 389.689 203.856 389.689 C 206.333 389.689 209.222 390.606 210.736 392.763 L 210.736 390.194 L 216.743 390.194 Z " fill="rgb(133,173,77)"/><path d=" M 221.463 404.686 L 227.104 404.686 C 227.104 405.925 228.158 407.255 230.268 407.255 C 232.011 407.255 233.34 406.52 233.34 405.282 C 233.34 404.365 232.607 403.907 231.002 403.494 L 228.158 402.806 C 222.655 401.339 221.921 398.265 221.921 396.018 C 221.921 392.717 225.361 389.643 230.314 389.643 C 234.212 389.643 238.798 391.571 238.752 396.615 L 233.02 396.615 C 233.02 395.193 231.827 394.414 230.405 394.414 C 229.03 394.414 227.928 395.101 227.928 396.203 C 227.928 397.211 228.846 397.715 230.039 398.037 L 233.569 398.954 C 238.706 400.33 239.349 403.541 239.349 405.282 C 239.349 409.777 234.762 411.978 230.359 411.978 C 225.865 411.978 221.508 409.411 221.463 404.686 Z " fill="rgb(133,173,77)"/><path d=" M 229.439 368.919 C 227.093 371.266 223.318 371.266 220.971 368.919 L 213.297 361.245 L 201.335 349.284 L 162.01 309.958 C 161.198 309.164 159.893 309.164 159.081 309.958 L 100.103 368.919 C 97.774 371.266 93.981 371.266 91.652 368.919 C 89.323 366.591 89.323 362.815 91.652 360.469 L 152.095 300.043 L 155.518 296.621 C 158.288 293.833 162.786 293.833 165.574 296.621 L 168.996 300.043 L 201.335 332.364 L 201.335 318.48 C 201.335 315.163 204.017 312.499 207.316 312.499 C 210.615 312.499 213.297 315.163 213.297 318.48 L 213.297 344.326 L 229.439 360.469 C 231.768 362.815 231.768 366.591 229.439 368.919 Z " fill="rgb(133,173,77)"/><path d=" M 311.337 390.194 L 317.345 390.194 L 317.345 411.566 L 311.337 411.566 L 311.337 390.194 Z  M 310.511 382.765 C 310.511 380.747 312.255 379.187 314.318 379.187 C 316.428 379.187 318.125 380.747 318.125 382.765 C 318.125 384.782 316.428 386.388 314.318 386.388 C 312.255 386.388 310.511 384.782 310.511 382.765 Z " fill="rgb(45,87,136)"/><path d=" M 344.308 399.825 L 344.308 411.566 L 338.301 411.566 L 338.301 400.467 C 338.301 397.073 336.283 395.559 334.219 395.559 C 332.063 395.559 329.404 396.707 329.404 400.605 L 329.404 411.566 L 323.396 411.566 L 323.396 390.194 L 329.404 390.194 L 329.404 393.772 C 330.322 390.882 333.715 389.643 335.825 389.643 C 341.42 389.643 344.354 393.404 344.308 399.825 Z " fill="rgb(45,87,136)"/><path d=" M 365.676 400.835 C 365.676 397.486 363.246 395.239 360.264 395.239 C 357.283 395.239 354.852 397.486 354.852 400.835 C 354.852 404.136 357.283 406.384 360.264 406.384 C 363.246 406.384 365.676 404.136 365.676 400.835 Z  M 348.753 400.835 C 348.753 394.046 354.165 389.643 360.264 389.643 C 366.364 389.643 371.775 394.046 371.775 400.835 C 371.775 407.576 366.364 411.978 360.264 411.978 C 354.165 411.978 348.753 407.576 348.753 400.835 Z " fill="rgb(45,87,136)"/><path d=" M 393.739 400.835 C 393.739 397.67 391.262 395.331 388.235 395.331 C 385.438 395.331 382.686 397.532 382.686 400.835 C 382.686 404.09 385.299 406.384 388.235 406.384 C 391.262 406.384 393.739 403.953 393.739 400.835 Z  M 399.884 400.835 C 399.884 407.714 394.884 411.978 389.382 411.978 C 386.952 411.978 384.016 411.061 382.503 408.906 L 382.503 411.566 L 376.494 411.566 L 376.494 378.775 L 382.503 378.775 L 382.503 392.763 C 384.016 390.606 386.952 389.689 389.382 389.689 C 394.884 389.689 399.884 393.955 399.884 400.835 Z " fill="rgb(45,87,136)"/><path d=" M 420.242 390.332 L 418.866 396.064 C 417.582 395.377 416.526 395.285 415.793 395.285 C 412.72 395.285 410.61 398.129 410.61 404.228 L 410.61 411.566 L 404.603 411.566 L 404.603 390.194 L 410.564 390.194 L 410.564 394.735 C 411.757 391.157 414.188 389.643 416.847 389.643 C 417.994 389.643 419.278 389.828 420.242 390.332 Z " fill="rgb(45,87,136)"/><path d=" M 438.858 400.835 C 438.858 397.532 436.107 395.331 433.309 395.331 C 430.282 395.331 427.76 397.67 427.76 400.835 C 427.76 403.953 430.282 406.384 433.309 406.384 C 436.244 406.384 438.858 404.09 438.858 400.835 Z  M 445.049 390.194 L 445.049 411.566 L 439.043 411.566 L 439.043 408.906 C 437.529 411.015 434.548 411.978 432.163 411.978 C 426.659 411.978 421.661 407.714 421.661 400.835 C 421.661 393.955 426.659 389.689 432.163 389.689 C 434.639 389.689 437.529 390.606 439.043 392.763 L 439.043 390.194 L 445.049 390.194 Z " fill="rgb(45,87,136)"/><path d=" M 449.769 404.686 L 455.411 404.686 C 455.411 405.925 456.465 407.255 458.575 407.255 C 460.318 407.255 461.647 406.52 461.647 405.282 C 461.647 404.365 460.913 403.907 459.308 403.494 L 456.465 402.806 C 450.962 401.339 450.228 398.265 450.228 396.018 C 450.228 392.717 453.668 389.643 458.621 389.643 C 462.519 389.643 467.105 391.571 467.059 396.615 L 461.327 396.615 C 461.327 395.193 460.133 394.414 458.712 394.414 C 457.337 394.414 456.235 395.101 456.235 396.203 C 456.235 397.211 457.153 397.715 458.345 398.037 L 461.877 398.954 C 467.012 400.33 467.656 403.541 467.656 405.282 C 467.656 409.777 463.068 411.978 458.666 411.978 C 454.173 411.978 449.815 409.411 449.769 404.686 Z " fill="rgb(45,87,136)"/><path d=" M 457.746 368.919 C 455.4 371.266 451.624 371.266 449.278 368.919 L 441.603 361.245 L 429.641 349.284 L 390.317 309.958 C 389.506 309.164 388.2 309.164 387.388 309.958 L 328.41 368.919 C 326.081 371.266 322.288 371.266 319.959 368.919 C 317.631 366.591 317.631 362.815 319.959 360.469 L 380.402 300.043 L 383.825 296.621 C 386.594 293.833 391.093 293.833 393.881 296.621 L 397.303 300.043 L 429.641 332.364 L 429.641 318.48 C 429.641 315.163 432.323 312.499 435.623 312.499 C 438.922 312.499 441.603 315.163 441.603 318.48 L 441.603 344.326 L 457.746 360.469 C 460.075 362.815 460.075 366.591 457.746 368.919 Z " fill="rgb(45,87,136)"/><path d=" M 255 751.219 L 0 751.219 L 0 496.219 L 255 496.219 L 255 751.219 Z " fill="rgb(45,87,136)"/><path d=" M 32.418 656.732 L 39.766 656.732 L 39.766 682.869 L 32.418 682.869 L 32.418 656.732 Z  M 31.409 647.647 C 31.409 645.179 33.541 643.271 36.064 643.271 C 38.645 643.271 40.72 645.179 40.72 647.647 C 40.72 650.114 38.645 652.078 36.064 652.078 C 33.541 652.078 31.409 650.114 31.409 647.647 Z " fill="rgb(254,254,254)"/><path d=" M 72.741 668.512 L 72.741 682.869 L 65.395 682.869 L 65.395 669.296 C 65.395 665.145 62.926 663.295 60.404 663.295 C 57.766 663.295 54.513 664.697 54.513 669.465 L 54.513 682.869 L 47.167 682.869 L 47.167 656.732 L 54.513 656.732 L 54.513 661.108 C 55.636 657.573 59.786 656.059 62.366 656.059 C 69.208 656.059 72.798 660.659 72.741 668.512 Z " fill="rgb(254,254,254)"/><path d=" M 98.873 669.745 C 98.873 665.65 95.901 662.903 92.255 662.903 C 88.609 662.903 85.636 665.65 85.636 669.745 C 85.636 673.783 88.609 676.531 92.255 676.531 C 95.901 676.531 98.873 673.783 98.873 669.745 Z  M 78.177 669.745 C 78.177 661.443 84.796 656.059 92.255 656.059 C 99.715 656.059 106.333 661.443 106.333 669.745 C 106.333 677.989 99.715 683.374 92.255 683.374 C 84.796 683.374 78.177 677.989 78.177 669.745 Z " fill="rgb(254,254,254)"/><path d=" M 133.193 669.745 C 133.193 665.875 130.164 663.014 126.462 663.014 C 123.041 663.014 119.675 665.706 119.675 669.745 C 119.675 673.726 122.872 676.531 126.462 676.531 C 130.164 676.531 133.193 673.558 133.193 669.745 Z  M 140.709 669.745 C 140.709 678.158 134.595 683.374 127.865 683.374 C 124.892 683.374 121.303 682.253 119.452 679.617 L 119.452 682.869 L 112.104 682.869 L 112.104 642.767 L 119.452 642.767 L 119.452 659.874 C 121.303 657.237 124.892 656.115 127.865 656.115 C 134.595 656.115 140.709 661.332 140.709 669.745 Z " fill="rgb(254,254,254)"/><path d=" M 165.605 656.901 L 163.923 663.912 C 162.352 663.07 161.062 662.958 160.164 662.958 C 156.407 662.958 153.826 666.436 153.826 673.895 L 153.826 682.869 L 146.48 682.869 L 146.48 656.732 L 153.77 656.732 L 153.77 662.286 C 155.229 657.91 158.202 656.059 161.455 656.059 C 162.857 656.059 164.427 656.284 165.605 656.901 Z " fill="rgb(254,254,254)"/><path d=" M 188.373 669.745 C 188.373 665.706 185.008 663.014 181.587 663.014 C 177.884 663.014 174.8 665.875 174.8 669.745 C 174.8 673.558 177.884 676.531 181.587 676.531 C 185.176 676.531 188.373 673.726 188.373 669.745 Z  M 195.944 656.732 L 195.944 682.869 L 188.598 682.869 L 188.598 679.617 C 186.747 682.196 183.101 683.374 180.185 683.374 C 173.454 683.374 167.341 678.158 167.341 669.745 C 167.341 661.332 173.454 656.115 180.185 656.115 C 183.214 656.115 186.747 657.237 188.598 659.874 L 188.598 656.732 L 195.944 656.732 Z " fill="rgb(254,254,254)"/><path d=" M 201.717 674.456 L 208.615 674.456 C 208.615 675.971 209.904 677.596 212.486 677.596 C 214.617 677.596 216.243 676.699 216.243 675.184 C 216.243 674.063 215.345 673.503 213.383 672.998 L 209.904 672.157 C 203.175 670.362 202.277 666.603 202.277 663.855 C 202.277 659.817 206.484 656.059 212.542 656.059 C 217.309 656.059 222.918 658.416 222.861 664.585 L 215.851 664.585 C 215.851 662.846 214.392 661.892 212.653 661.892 C 210.971 661.892 209.624 662.734 209.624 664.081 C 209.624 665.313 210.747 665.93 212.205 666.323 L 216.523 667.445 C 222.805 669.128 223.591 673.055 223.591 675.184 C 223.591 680.681 217.981 683.374 212.597 683.374 C 207.101 683.374 201.773 680.233 201.717 674.456 Z " fill="rgb(254,254,254)"/><path d=" M 211.472 630.714 C 208.602 633.584 203.985 633.584 201.115 630.714 L 191.73 621.328 L 177.101 606.7 L 129.008 558.607 C 128.016 557.636 126.419 557.636 125.426 558.607 L 53.298 630.714 C 50.449 633.584 45.811 633.584 42.963 630.714 C 40.114 627.866 40.114 623.249 42.963 620.379 L 116.882 546.481 L 121.068 542.296 C 124.456 538.887 129.958 538.887 133.366 542.296 L 137.552 546.481 L 177.101 586.009 L 177.101 569.028 C 177.101 564.971 180.381 561.714 184.416 561.714 C 188.45 561.714 191.73 564.971 191.73 569.028 L 191.73 600.637 L 211.472 620.379 C 214.32 623.249 214.32 627.866 211.472 630.714 Z " fill="rgb(254,254,254)"/><path d=" M 319.172 668.894 L 326.519 668.894 L 326.519 695.032 L 319.172 695.032 L 319.172 668.894 Z  M 318.163 659.809 C 318.163 657.342 320.294 655.433 322.817 655.433 C 325.398 655.433 327.473 657.342 327.473 659.809 C 327.473 662.276 325.398 664.24 322.817 664.24 C 320.294 664.24 318.163 662.276 318.163 659.809 Z " fill="rgb(41,41,41)"/><path d=" M 359.495 680.674 L 359.495 695.032 L 352.148 695.032 L 352.148 681.458 C 352.148 677.308 349.68 675.457 347.157 675.457 C 344.519 675.457 341.266 676.86 341.266 681.628 L 341.266 695.032 L 333.92 695.032 L 333.92 668.894 L 341.266 668.894 L 341.266 673.27 C 342.389 669.736 346.54 668.221 349.119 668.221 C 355.962 668.221 359.551 672.821 359.495 680.674 Z " fill="rgb(41,41,41)"/><path d=" M 385.627 681.908 C 385.627 677.812 382.654 675.065 379.008 675.065 C 375.362 675.065 372.389 677.812 372.389 681.908 C 372.389 685.945 375.362 688.694 379.008 688.694 C 382.654 688.694 385.627 685.945 385.627 681.908 Z  M 364.93 681.908 C 364.93 673.605 371.548 668.221 379.008 668.221 C 386.467 668.221 393.087 673.605 393.087 681.908 C 393.087 690.152 386.467 695.536 379.008 695.536 C 371.548 695.536 364.93 690.152 364.93 681.908 Z " fill="rgb(41,41,41)"/><path d=" M 419.946 681.908 C 419.946 678.038 416.918 675.177 413.215 675.177 C 409.795 675.177 406.429 677.869 406.429 681.908 C 406.429 685.888 409.626 688.694 413.215 688.694 C 416.918 688.694 419.946 685.721 419.946 681.908 Z  M 427.463 681.908 C 427.463 690.321 421.348 695.536 414.618 695.536 C 411.646 695.536 408.056 694.415 406.205 691.779 L 406.205 695.032 L 398.857 695.032 L 398.857 654.93 L 406.205 654.93 L 406.205 672.036 C 408.056 669.399 411.646 668.278 414.618 668.278 C 421.348 668.278 427.463 673.494 427.463 681.908 Z " fill="rgb(41,41,41)"/><path d=" M 452.358 669.063 L 450.676 676.074 C 449.105 675.233 447.815 675.12 446.918 675.12 C 443.161 675.12 440.58 678.598 440.58 686.057 L 440.58 695.032 L 433.233 695.032 L 433.233 668.894 L 440.523 668.894 L 440.523 674.448 C 441.983 670.072 444.956 668.221 448.208 668.221 C 449.61 668.221 451.18 668.447 452.358 669.063 Z " fill="rgb(41,41,41)"/><path d=" M 475.126 681.908 C 475.126 677.869 471.761 675.177 468.34 675.177 C 464.637 675.177 461.553 678.038 461.553 681.908 C 461.553 685.721 464.637 688.694 468.34 688.694 C 471.929 688.694 475.126 685.888 475.126 681.908 Z  M 482.698 668.894 L 482.698 695.032 L 475.351 695.032 L 475.351 691.779 C 473.5 694.358 469.854 695.536 466.938 695.536 C 460.207 695.536 454.094 690.321 454.094 681.908 C 454.094 673.494 460.207 668.278 466.938 668.278 C 469.966 668.278 473.5 669.399 475.351 672.036 L 475.351 668.894 L 482.698 668.894 Z " fill="rgb(41,41,41)"/><path d=" M 488.47 686.619 L 495.369 686.619 C 495.369 688.133 496.658 689.759 499.239 689.759 C 501.371 689.759 502.996 688.861 502.996 687.347 C 502.996 686.225 502.098 685.665 500.136 685.161 L 496.658 684.319 C 489.928 682.524 489.031 678.766 489.031 676.017 C 489.031 671.98 493.237 668.221 499.296 668.221 C 504.062 668.221 509.671 670.578 509.615 676.747 L 502.604 676.747 C 502.604 675.009 501.145 674.055 499.407 674.055 C 497.724 674.055 496.378 674.896 496.378 676.243 C 496.378 677.475 497.501 678.093 498.959 678.486 L 503.276 679.607 C 509.558 681.291 510.344 685.217 510.344 687.347 C 510.344 692.844 504.735 695.536 499.35 695.536 C 493.854 695.536 488.526 692.396 488.47 686.619 Z " fill="rgb(41,41,41)"/><path d=" M 498.225 642.877 C 495.356 645.746 490.739 645.746 487.869 642.877 L 478.483 633.491 L 463.854 618.862 L 415.761 570.769 C 414.769 569.799 413.173 569.799 412.18 570.769 L 340.051 642.877 C 337.203 645.746 332.564 645.746 329.716 642.877 C 326.868 640.028 326.868 635.411 329.716 632.542 L 403.635 558.643 L 407.822 554.458 C 411.209 551.049 416.711 551.049 420.12 554.458 L 424.305 558.643 L 463.854 598.171 L 463.854 581.19 C 463.854 577.134 467.134 573.876 471.169 573.876 C 475.204 573.876 478.483 577.134 478.483 581.19 L 478.483 612.8 L 498.225 632.542 C 501.073 635.411 501.073 640.028 498.225 642.877 Z " fill="rgb(41,41,41)"/></g></g></svg>